# xmcd
# Copyright (C) 1995-1998 Ti Kan
#
# Track frame offsets:
#       150
#       64620
#       121846
#       186357
#
# Disc length: 3602 seconds
#
# Revision: 0
# Processed by: cddbd v1.5.2PL0 Copyright (c) Steve Scherf et al.
# Submitted via: CD-Transfer v1.0
#
DISCID=300e1004
DTITLE=Friday Night Life Mixed By Dj René - 
DYEAR=1900
DGENRE=
TTITLE0=Track 05
TTITLE1=Track 06
TTITLE2=Track 07
TTITLE3=Track 08
EXTD=
EXTT0=
EXTT1=
EXTT2=
EXTT3=
PLAYORDER=
